<svg xmlns="http://www.w3.org/2000/svg" width="22" height="22"><path fill="#808285" d="M9.75 16.1c-.42.56-.98 1.27-2.02 1.27-1.05 0-1.6-.71-2.02-1.26-.35-.48-.56-.71-.98-.71s-.62.23-.97.7c-.42.56-.98 1.27-2.02 1.27v-1.5c.41 0 .62-.24.97-.71.42-.55.98-1.27 2.02-1.27s1.6.71 1.95 1.27c.42.47.63.7 1.05.7s.62-.23.97-.7c.42-.56 1.12-1.27 2.16-1.27s2.02.71 2.42 1.27c.37.47.57.7 1 .7s.62-.23.97-.7c.41-.56.97-1.27 2.02-1.27 1.04 0 1.6.71 1.95 1.27.41.47 1.04.7 1.04.7v1.5c-1.04 0-1.6-.7-2.02-1.26-.35-.47-.55-.7-.97-.7-.42 0-.63.23-.98.7-.42.56-.97 1.27-2.02 1.27s-1.6-.71-2.02-1.27c-.35-.47-.97-.7-1.4-.7s-.75.23-1.1.7zm-.56-8.36l.94 1.81-4.34 3.48 2.02.6 2.61-.9H11l2.6.9 1.45-.32-3.47-5.79 2.7-1.59c.62-.35.55-.83.48-1.18-.07-.28-.49-.7-1.05-.7L9.46 6.21c-.41.28-.62 1.04-.27 1.53zm6.44 2.68a1.74 1.74 0 1 0 0-3.47 1.74 1.74 0 0 0 0 3.47z"/></svg>